# xmcd
#
# Track frame offsets:
# 150
# 10980
# 35425
# 50045
# 65790
# 84240
# 104757
# 121467
# 135632
# 153634
#
# Disc length: 2204 seconds
#
#
# Revision: 0
# Processed by: cddbd v1.5.1PL2 Copyright (c) Steve Scherf et al.
# Submitted via: FreeRIP 2.945 
#
DISCID=8d089a0a
DTITLE=Faye Yates - Fan The Flame
DYEAR=1995
DGENRE=Christian Country
TTITLE0=He's My Lighthouse
TTITLE1=Broken Believer
TTITLE2=Take This Message
TTITLE3=Wedding Day
TTITLE4=Give Us America
TTITLE5=Country Church
TTITLE6=Household Name
TTITLE7=Mercy
TTITLE8=You Know Where I Am
TTITLE9=Solid Ground
EXTD=
EXTT0=
EXTT1=
EXTT2=
EXTT3=
EXTT4=
EXTT5=
EXTT6=
EXTT7=
EXTT8=
EXTT9=
PLAYORDER=
